<mxfile host="app.diagrams.net" modified="2021-04-12T01:18:11.604Z" agent="5.0 (Windows NT 10.0; Win64; x64) AppleWebKit/537.36 (KHTML, like Gecko) Chrome/89.0.4389.114 Safari/537.36" etag="l7DG5qKbri6F5I86mnxH" version="14.5.10" type="github" pages="2">
  <diagram id="R2lEEEUBdFMjLlhIrx00" name="Page-1">
    <mxGraphModel dx="1888" dy="548" grid="1" gridSize="10" guides="1" tooltips="1" connect="1" arrows="1" fold="1" page="1" pageScale="1" pageWidth="850" pageHeight="1100" math="0" shadow="0" extFonts="Permanent Marker^https://fonts.googleapis.com/css?family=Permanent+Marker">
      <root>
        <mxCell id="0" />
        <mxCell id="1" parent="0" />
        <mxCell id="5AaVmbIVMTTLecgeGJEW-31" value="" style="group" parent="1" vertex="1" connectable="0">
          <mxGeometry x="480" y="340" width="260" height="140" as="geometry" />
        </mxCell>
        <mxCell id="5AaVmbIVMTTLecgeGJEW-3" value="댓글" style="rounded=0;whiteSpace=wrap;html=1;" parent="5AaVmbIVMTTLecgeGJEW-31" vertex="1">
          <mxGeometry x="60" width="120" height="60" as="geometry" />
        </mxCell>
        <mxCell id="5AaVmbIVMTTLecgeGJEW-25" value="&lt;u&gt;NUM&lt;/u&gt;" style="ellipse;whiteSpace=wrap;html=1;" parent="5AaVmbIVMTTLecgeGJEW-31" vertex="1">
          <mxGeometry y="100" width="60" height="40" as="geometry" />
        </mxCell>
        <mxCell id="5AaVmbIVMTTLecgeGJEW-26" value="WRITER" style="ellipse;whiteSpace=wrap;html=1;" parent="5AaVmbIVMTTLecgeGJEW-31" vertex="1">
          <mxGeometry x="90" y="100" width="60" height="40" as="geometry" />
        </mxCell>
        <mxCell id="5AaVmbIVMTTLecgeGJEW-27" value="CONTENTS" style="ellipse;whiteSpace=wrap;html=1;" parent="5AaVmbIVMTTLecgeGJEW-31" vertex="1">
          <mxGeometry x="180" y="90" width="80" height="50" as="geometry" />
        </mxCell>
        <mxCell id="5AaVmbIVMTTLecgeGJEW-28" value="" style="endArrow=none;html=1;exitX=1;exitY=0;exitDx=0;exitDy=0;entryX=0.5;entryY=1;entryDx=0;entryDy=0;" parent="5AaVmbIVMTTLecgeGJEW-31" source="5AaVmbIVMTTLecgeGJEW-25" target="5AaVmbIVMTTLecgeGJEW-3" edge="1">
          <mxGeometry width="50" height="50" relative="1" as="geometry">
            <mxPoint x="-360" y="110" as="sourcePoint" />
            <mxPoint x="-310" y="70" as="targetPoint" />
          </mxGeometry>
        </mxCell>
        <mxCell id="5AaVmbIVMTTLecgeGJEW-29" value="" style="endArrow=none;html=1;exitX=0.5;exitY=0;exitDx=0;exitDy=0;" parent="5AaVmbIVMTTLecgeGJEW-31" source="5AaVmbIVMTTLecgeGJEW-26" edge="1">
          <mxGeometry width="50" height="50" relative="1" as="geometry">
            <mxPoint x="61.21320343559637" y="115.85786437626894" as="sourcePoint" />
            <mxPoint x="120" y="60" as="targetPoint" />
          </mxGeometry>
        </mxCell>
        <mxCell id="5AaVmbIVMTTLecgeGJEW-30" value="" style="endArrow=none;html=1;exitX=0;exitY=0;exitDx=0;exitDy=0;entryX=0.5;entryY=1;entryDx=0;entryDy=0;" parent="5AaVmbIVMTTLecgeGJEW-31" source="5AaVmbIVMTTLecgeGJEW-27" target="5AaVmbIVMTTLecgeGJEW-3" edge="1">
          <mxGeometry width="50" height="50" relative="1" as="geometry">
            <mxPoint x="130" y="110" as="sourcePoint" />
            <mxPoint x="130" y="70" as="targetPoint" />
          </mxGeometry>
        </mxCell>
        <mxCell id="5AaVmbIVMTTLecgeGJEW-32" value="" style="group" parent="1" vertex="1" connectable="0">
          <mxGeometry x="20" y="340" width="340" height="140" as="geometry" />
        </mxCell>
        <mxCell id="5AaVmbIVMTTLecgeGJEW-2" value="글" style="rounded=0;whiteSpace=wrap;html=1;" parent="5AaVmbIVMTTLecgeGJEW-32" vertex="1">
          <mxGeometry x="100" width="120" height="60" as="geometry" />
        </mxCell>
        <mxCell id="5AaVmbIVMTTLecgeGJEW-16" value="WRITER" style="ellipse;whiteSpace=wrap;html=1;" parent="5AaVmbIVMTTLecgeGJEW-32" vertex="1">
          <mxGeometry x="80" y="100" width="60" height="40" as="geometry" />
        </mxCell>
        <mxCell id="5AaVmbIVMTTLecgeGJEW-17" value="TITLE&lt;span style=&quot;color: rgba(0 , 0 , 0 , 0) ; font-family: monospace ; font-size: 0px&quot;&gt;%3CmxGraphModel%3E%3Croot%3E%3CmxCell%20id%3D%220%22%2F%3E%3CmxCell%20id%3D%221%22%20parent%3D%220%22%2F%3E%3CmxCell%20id%3D%222%22%20value%3D%22WRITER%22%20style%3D%22ellipse%3BwhiteSpace%3Dwrap%3Bhtml%3D1%3B%22%20vertex%3D%221%22%20parent%3D%221%22%3E%3CmxGeometry%20x%3D%2250%22%20y%3D%22290%22%20width%3D%2260%22%20height%3D%2240%22%20as%3D%22geometry%22%2F%3E%3C%2FmxCell%3E%3C%2Froot%3E%3C%2FmxGraphModel%3E&lt;/span&gt;" style="ellipse;whiteSpace=wrap;html=1;" parent="5AaVmbIVMTTLecgeGJEW-32" vertex="1">
          <mxGeometry x="170" y="100" width="60" height="40" as="geometry" />
        </mxCell>
        <mxCell id="5AaVmbIVMTTLecgeGJEW-18" value="&lt;u&gt;NUM&lt;/u&gt;" style="ellipse;whiteSpace=wrap;html=1;" parent="5AaVmbIVMTTLecgeGJEW-32" vertex="1">
          <mxGeometry y="100" width="60" height="40" as="geometry" />
        </mxCell>
        <mxCell id="5AaVmbIVMTTLecgeGJEW-19" value="CONTENTS" style="ellipse;whiteSpace=wrap;html=1;" parent="5AaVmbIVMTTLecgeGJEW-32" vertex="1">
          <mxGeometry x="260" y="90" width="80" height="50" as="geometry" />
        </mxCell>
        <mxCell id="5AaVmbIVMTTLecgeGJEW-20" value="" style="endArrow=none;html=1;exitX=1;exitY=0;exitDx=0;exitDy=0;" parent="5AaVmbIVMTTLecgeGJEW-32" source="5AaVmbIVMTTLecgeGJEW-18" edge="1">
          <mxGeometry width="50" height="50" relative="1" as="geometry">
            <mxPoint x="110" y="110" as="sourcePoint" />
            <mxPoint x="160" y="60" as="targetPoint" />
          </mxGeometry>
        </mxCell>
        <mxCell id="5AaVmbIVMTTLecgeGJEW-21" value="" style="endArrow=none;html=1;exitX=0.5;exitY=0;exitDx=0;exitDy=0;entryX=0.5;entryY=1;entryDx=0;entryDy=0;" parent="5AaVmbIVMTTLecgeGJEW-32" source="5AaVmbIVMTTLecgeGJEW-16" target="5AaVmbIVMTTLecgeGJEW-2" edge="1">
          <mxGeometry width="50" height="50" relative="1" as="geometry">
            <mxPoint x="61.21320343559637" y="115.85786437626905" as="sourcePoint" />
            <mxPoint x="170" y="70" as="targetPoint" />
          </mxGeometry>
        </mxCell>
        <mxCell id="5AaVmbIVMTTLecgeGJEW-22" value="" style="endArrow=none;html=1;exitX=0;exitY=0;exitDx=0;exitDy=0;" parent="5AaVmbIVMTTLecgeGJEW-32" source="5AaVmbIVMTTLecgeGJEW-17" edge="1">
          <mxGeometry width="50" height="50" relative="1" as="geometry">
            <mxPoint x="120" y="110" as="sourcePoint" />
            <mxPoint x="160" y="60" as="targetPoint" />
          </mxGeometry>
        </mxCell>
        <mxCell id="5AaVmbIVMTTLecgeGJEW-23" value="" style="endArrow=none;html=1;exitX=0;exitY=0;exitDx=0;exitDy=0;entryX=0.5;entryY=1;entryDx=0;entryDy=0;" parent="5AaVmbIVMTTLecgeGJEW-32" source="5AaVmbIVMTTLecgeGJEW-19" target="5AaVmbIVMTTLecgeGJEW-2" edge="1">
          <mxGeometry width="50" height="50" relative="1" as="geometry">
            <mxPoint x="130" y="120" as="sourcePoint" />
            <mxPoint x="180" y="80" as="targetPoint" />
          </mxGeometry>
        </mxCell>
        <mxCell id="5AaVmbIVMTTLecgeGJEW-34" value="쓰다" style="rhombus;whiteSpace=wrap;html=1;" parent="1" vertex="1">
          <mxGeometry x="150" y="240" width="60" height="60" as="geometry" />
        </mxCell>
        <mxCell id="5AaVmbIVMTTLecgeGJEW-37" value="" style="endArrow=ERone;html=1;entryX=0.5;entryY=1;entryDx=0;entryDy=0;startArrow=none;startFill=0;endFill=0;" parent="1" target="5AaVmbIVMTTLecgeGJEW-1" edge="1">
          <mxGeometry width="50" height="50" relative="1" as="geometry">
            <mxPoint x="180" y="240" as="sourcePoint" />
            <mxPoint x="230" y="190" as="targetPoint" />
          </mxGeometry>
        </mxCell>
        <mxCell id="5AaVmbIVMTTLecgeGJEW-38" value="" style="endArrow=none;html=1;entryX=0.5;entryY=1;entryDx=0;entryDy=0;exitX=0.5;exitY=0;exitDx=0;exitDy=0;startArrow=ERzeroToMany;startFill=1;" parent="1" source="5AaVmbIVMTTLecgeGJEW-2" target="5AaVmbIVMTTLecgeGJEW-34" edge="1">
          <mxGeometry width="50" height="50" relative="1" as="geometry">
            <mxPoint x="190" y="250" as="sourcePoint" />
            <mxPoint x="190" y="215" as="targetPoint" />
          </mxGeometry>
        </mxCell>
        <mxCell id="5AaVmbIVMTTLecgeGJEW-39" value="포함" style="rhombus;whiteSpace=wrap;html=1;" parent="1" vertex="1">
          <mxGeometry x="365" y="340" width="60" height="60" as="geometry" />
        </mxCell>
        <mxCell id="5AaVmbIVMTTLecgeGJEW-40" value="" style="endArrow=ERone;html=1;entryX=1;entryY=0.5;entryDx=0;entryDy=0;exitX=0;exitY=0.5;exitDx=0;exitDy=0;endFill=0;" parent="1" source="5AaVmbIVMTTLecgeGJEW-39" target="5AaVmbIVMTTLecgeGJEW-2" edge="1">
          <mxGeometry width="50" height="50" relative="1" as="geometry">
            <mxPoint x="400" y="260" as="sourcePoint" />
            <mxPoint x="450" y="210" as="targetPoint" />
          </mxGeometry>
        </mxCell>
        <mxCell id="5AaVmbIVMTTLecgeGJEW-41" value="" style="endArrow=none;html=1;entryX=1;entryY=0.5;entryDx=0;entryDy=0;exitX=0;exitY=0.5;exitDx=0;exitDy=0;startArrow=ERzeroToMany;startFill=1;" parent="1" source="5AaVmbIVMTTLecgeGJEW-3" edge="1">
          <mxGeometry width="50" height="50" relative="1" as="geometry">
            <mxPoint x="550" y="369.5" as="sourcePoint" />
            <mxPoint x="425" y="369.5" as="targetPoint" />
          </mxGeometry>
        </mxCell>
        <mxCell id="5AaVmbIVMTTLecgeGJEW-42" value="쓰다" style="rhombus;whiteSpace=wrap;html=1;" parent="1" vertex="1">
          <mxGeometry x="390" y="230" width="60" height="60" as="geometry" />
        </mxCell>
        <mxCell id="5AaVmbIVMTTLecgeGJEW-44" value="" style="endArrow=none;html=1;entryX=1;entryY=0.5;entryDx=0;entryDy=0;exitX=0.5;exitY=0;exitDx=0;exitDy=0;startArrow=ERzeroToMany;startFill=1;" parent="1" source="5AaVmbIVMTTLecgeGJEW-3" target="5AaVmbIVMTTLecgeGJEW-42" edge="1">
          <mxGeometry width="50" height="50" relative="1" as="geometry">
            <mxPoint x="545" y="174.5" as="sourcePoint" />
            <mxPoint x="420" y="174.5" as="targetPoint" />
            <Array as="points">
              <mxPoint x="600" y="260" />
            </Array>
          </mxGeometry>
        </mxCell>
        <mxCell id="5AaVmbIVMTTLecgeGJEW-1" value="회원" style="rounded=0;whiteSpace=wrap;html=1;" parent="1" vertex="1">
          <mxGeometry x="120" y="145" width="120" height="60" as="geometry" />
        </mxCell>
        <mxCell id="5AaVmbIVMTTLecgeGJEW-4" value="&lt;u&gt;ID&lt;/u&gt;" style="ellipse;whiteSpace=wrap;html=1;aspect=fixed;" parent="1" vertex="1">
          <mxGeometry x="30" y="45" width="40" height="40" as="geometry" />
        </mxCell>
        <mxCell id="5AaVmbIVMTTLecgeGJEW-5" value="NAME" style="ellipse;whiteSpace=wrap;html=1;aspect=fixed;" parent="1" vertex="1">
          <mxGeometry x="90" y="40" width="50" height="50" as="geometry" />
        </mxCell>
        <mxCell id="5AaVmbIVMTTLecgeGJEW-7" value="REG_DATE" style="ellipse;whiteSpace=wrap;html=1;" parent="1" vertex="1">
          <mxGeometry x="160" y="40" width="80" height="50" as="geometry" />
        </mxCell>
        <mxCell id="5AaVmbIVMTTLecgeGJEW-8" value="PHONE_NUM" style="ellipse;whiteSpace=wrap;html=1;" parent="1" vertex="1">
          <mxGeometry x="260" y="40" width="90" height="50" as="geometry" />
        </mxCell>
        <mxCell id="5AaVmbIVMTTLecgeGJEW-9" value="" style="endArrow=none;html=1;entryX=0.591;entryY=0.976;entryDx=0;entryDy=0;entryPerimeter=0;" parent="1" target="5AaVmbIVMTTLecgeGJEW-8" edge="1">
          <mxGeometry x="30" y="40" width="50" height="50" as="geometry">
            <mxPoint x="180" y="145" as="sourcePoint" />
            <mxPoint x="230" y="95" as="targetPoint" />
          </mxGeometry>
        </mxCell>
        <mxCell id="5AaVmbIVMTTLecgeGJEW-11" value="" style="endArrow=none;html=1;entryX=0.5;entryY=1;entryDx=0;entryDy=0;" parent="1" target="5AaVmbIVMTTLecgeGJEW-7" edge="1">
          <mxGeometry x="30" y="40" width="50" height="50" as="geometry">
            <mxPoint x="180" y="145" as="sourcePoint" />
            <mxPoint x="293.19000000000005" y="84.99999999999996" as="targetPoint" />
          </mxGeometry>
        </mxCell>
        <mxCell id="5AaVmbIVMTTLecgeGJEW-12" value="" style="endArrow=none;html=1;entryX=0.5;entryY=1;entryDx=0;entryDy=0;exitX=0.5;exitY=0;exitDx=0;exitDy=0;" parent="1" source="5AaVmbIVMTTLecgeGJEW-1" target="5AaVmbIVMTTLecgeGJEW-5" edge="1">
          <mxGeometry x="30" y="40" width="50" height="50" as="geometry">
            <mxPoint x="190" y="155" as="sourcePoint" />
            <mxPoint x="210" y="100" as="targetPoint" />
          </mxGeometry>
        </mxCell>
        <mxCell id="5AaVmbIVMTTLecgeGJEW-14" value="" style="endArrow=none;html=1;entryX=0.5;entryY=1;entryDx=0;entryDy=0;" parent="1" target="5AaVmbIVMTTLecgeGJEW-4" edge="1">
          <mxGeometry x="30" y="40" width="50" height="50" as="geometry">
            <mxPoint x="180" y="145" as="sourcePoint" />
            <mxPoint x="125" y="100" as="targetPoint" />
          </mxGeometry>
        </mxCell>
        <mxCell id="5AaVmbIVMTTLecgeGJEW-43" value="" style="endArrow=ERone;html=1;entryX=0.75;entryY=1;entryDx=0;entryDy=0;exitX=0;exitY=0.5;exitDx=0;exitDy=0;endFill=0;" parent="1" source="5AaVmbIVMTTLecgeGJEW-42" target="5AaVmbIVMTTLecgeGJEW-1" edge="1">
          <mxGeometry x="30" y="40" width="50" height="50" as="geometry">
            <mxPoint x="365" y="174.5" as="sourcePoint" />
            <mxPoint x="240" y="174.5" as="targetPoint" />
            <Array as="points">
              <mxPoint x="210" y="260" />
            </Array>
          </mxGeometry>
        </mxCell>
        <mxCell id="5AaVmbIVMTTLecgeGJEW-51" value="관리자" style="rounded=0;whiteSpace=wrap;html=1;" parent="1" vertex="1">
          <mxGeometry x="-170" y="145" width="120" height="60" as="geometry" />
        </mxCell>
        <mxCell id="Yc3gxPV8WiNfEO9ZknrC-1" value="&lt;u&gt;ID&lt;/u&gt;" style="ellipse;whiteSpace=wrap;html=1;aspect=fixed;" parent="1" vertex="1">
          <mxGeometry x="-170" y="55" width="40" height="40" as="geometry" />
        </mxCell>
        <mxCell id="Yc3gxPV8WiNfEO9ZknrC-2" value="승격일" style="ellipse;whiteSpace=wrap;html=1;aspect=fixed;" parent="1" vertex="1">
          <mxGeometry x="-100" y="45" width="50" height="50" as="geometry" />
        </mxCell>
        <mxCell id="Yc3gxPV8WiNfEO9ZknrC-3" value="" style="endArrow=none;html=1;entryX=0.5;entryY=1;entryDx=0;entryDy=0;exitX=0.5;exitY=0;exitDx=0;exitDy=0;" parent="1" source="5AaVmbIVMTTLecgeGJEW-51" target="Yc3gxPV8WiNfEO9ZknrC-1" edge="1">
          <mxGeometry width="50" height="50" relative="1" as="geometry">
            <mxPoint x="220" y="310" as="sourcePoint" />
            <mxPoint x="270" y="260" as="targetPoint" />
          </mxGeometry>
        </mxCell>
        <mxCell id="Yc3gxPV8WiNfEO9ZknrC-4" value="" style="endArrow=none;html=1;entryX=0.5;entryY=1;entryDx=0;entryDy=0;exitX=0.5;exitY=0;exitDx=0;exitDy=0;" parent="1" source="5AaVmbIVMTTLecgeGJEW-51" target="Yc3gxPV8WiNfEO9ZknrC-2" edge="1">
          <mxGeometry width="50" height="50" relative="1" as="geometry">
            <mxPoint x="-100" y="155" as="sourcePoint" />
            <mxPoint x="-140" y="105" as="targetPoint" />
          </mxGeometry>
        </mxCell>
        <mxCell id="Yc3gxPV8WiNfEO9ZknrC-6" value="기록" style="rhombus;whiteSpace=wrap;html=1;" parent="1" vertex="1">
          <mxGeometry y="145" width="60" height="60" as="geometry" />
        </mxCell>
        <mxCell id="Yc3gxPV8WiNfEO9ZknrC-8" value="" style="endArrow=none;html=1;entryX=0;entryY=0.5;entryDx=0;entryDy=0;exitX=1;exitY=0.5;exitDx=0;exitDy=0;startArrow=ERzeroToOne;startFill=1;" parent="1" source="5AaVmbIVMTTLecgeGJEW-51" target="Yc3gxPV8WiNfEO9ZknrC-6" edge="1">
          <mxGeometry width="50" height="50" relative="1" as="geometry">
            <mxPoint x="-100" y="155" as="sourcePoint" />
            <mxPoint x="-65" y="105" as="targetPoint" />
          </mxGeometry>
        </mxCell>
        <mxCell id="Yc3gxPV8WiNfEO9ZknrC-9" value="" style="endArrow=ERone;html=1;entryX=0;entryY=0.5;entryDx=0;entryDy=0;exitX=1;exitY=0.5;exitDx=0;exitDy=0;endFill=0;" parent="1" source="Yc3gxPV8WiNfEO9ZknrC-6" target="5AaVmbIVMTTLecgeGJEW-1" edge="1">
          <mxGeometry width="50" height="50" relative="1" as="geometry">
            <mxPoint x="-40" y="185" as="sourcePoint" />
            <mxPoint x="10" y="185" as="targetPoint" />
          </mxGeometry>
        </mxCell>
        <mxCell id="Yc3gxPV8WiNfEO9ZknrC-18" value="강의" style="rounded=0;whiteSpace=wrap;html=1;" parent="1" vertex="1">
          <mxGeometry x="650" y="145" width="120" height="60" as="geometry" />
        </mxCell>
        <mxCell id="Yc3gxPV8WiNfEO9ZknrC-20" value="&lt;u&gt;강의&lt;br&gt;번호&lt;/u&gt;" style="ellipse;whiteSpace=wrap;html=1;aspect=fixed;" parent="1" vertex="1">
          <mxGeometry x="580" y="50" width="50" height="50" as="geometry" />
        </mxCell>
        <mxCell id="Yc3gxPV8WiNfEO9ZknrC-21" value="강사" style="ellipse;whiteSpace=wrap;html=1;aspect=fixed;" parent="1" vertex="1">
          <mxGeometry x="680" y="50" width="50" height="50" as="geometry" />
        </mxCell>
        <mxCell id="Yc3gxPV8WiNfEO9ZknrC-22" value="강의&lt;br&gt;내용" style="ellipse;whiteSpace=wrap;html=1;aspect=fixed;" parent="1" vertex="1">
          <mxGeometry x="770" y="55" width="50" height="50" as="geometry" />
        </mxCell>
        <mxCell id="Yc3gxPV8WiNfEO9ZknrC-23" value="" style="endArrow=none;html=1;entryX=0.5;entryY=1;entryDx=0;entryDy=0;exitX=0.5;exitY=0;exitDx=0;exitDy=0;" parent="1" source="Yc3gxPV8WiNfEO9ZknrC-18" target="Yc3gxPV8WiNfEO9ZknrC-20" edge="1">
          <mxGeometry x="150" y="50" width="50" height="50" as="geometry">
            <mxPoint x="300" y="155" as="sourcePoint" />
            <mxPoint x="235" y="100" as="targetPoint" />
          </mxGeometry>
        </mxCell>
        <mxCell id="Yc3gxPV8WiNfEO9ZknrC-24" value="" style="endArrow=none;html=1;entryX=0.5;entryY=1;entryDx=0;entryDy=0;exitX=0.5;exitY=0;exitDx=0;exitDy=0;" parent="1" source="Yc3gxPV8WiNfEO9ZknrC-18" target="Yc3gxPV8WiNfEO9ZknrC-21" edge="1">
          <mxGeometry x="160" y="60" width="50" height="50" as="geometry">
            <mxPoint x="710" y="140" as="sourcePoint" />
            <mxPoint x="615" y="110" as="targetPoint" />
          </mxGeometry>
        </mxCell>
        <mxCell id="Yc3gxPV8WiNfEO9ZknrC-25" value="" style="endArrow=none;html=1;entryX=0;entryY=1;entryDx=0;entryDy=0;exitX=0.5;exitY=0;exitDx=0;exitDy=0;" parent="1" source="Yc3gxPV8WiNfEO9ZknrC-18" target="Yc3gxPV8WiNfEO9ZknrC-22" edge="1">
          <mxGeometry x="170" y="70" width="50" height="50" as="geometry">
            <mxPoint x="720" y="155" as="sourcePoint" />
            <mxPoint x="715" y="110" as="targetPoint" />
          </mxGeometry>
        </mxCell>
        <mxCell id="Yc3gxPV8WiNfEO9ZknrC-27" value="" style="endArrow=ERzeroToMany;html=1;entryX=0;entryY=0.5;entryDx=0;entryDy=0;exitX=1;exitY=0.5;exitDx=0;exitDy=0;startArrow=ERone;startFill=0;endFill=1;" parent="1" source="5AaVmbIVMTTLecgeGJEW-1" target="xO7pSeY5zcBQsekjDBeP-2" edge="1">
          <mxGeometry x="40" y="50" width="50" height="50" as="geometry">
            <mxPoint x="190" y="155" as="sourcePoint" />
            <mxPoint x="370" y="175" as="targetPoint" />
          </mxGeometry>
        </mxCell>
        <mxCell id="Yc3gxPV8WiNfEO9ZknrC-28" value="" style="endArrow=ERone;html=1;entryX=0;entryY=0.5;entryDx=0;entryDy=0;exitX=1;exitY=0.5;exitDx=0;exitDy=0;endFill=0;startArrow=ERzeroToMany;startFill=1;" parent="1" source="xO7pSeY5zcBQsekjDBeP-2" target="Yc3gxPV8WiNfEO9ZknrC-18" edge="1">
          <mxGeometry x="340" y="49.5" width="50" height="50" as="geometry">
            <mxPoint x="540" y="175" as="sourcePoint" />
            <mxPoint x="670" y="174.5" as="targetPoint" />
          </mxGeometry>
        </mxCell>
        <mxCell id="xO7pSeY5zcBQsekjDBeP-2" value="신청목록" style="rounded=0;whiteSpace=wrap;html=1;" vertex="1" parent="1">
          <mxGeometry x="425" y="150" width="80" height="55" as="geometry" />
        </mxCell>
        <mxCell id="xO7pSeY5zcBQsekjDBeP-3" value="&lt;u&gt;ID&lt;/u&gt;" style="ellipse;whiteSpace=wrap;html=1;aspect=fixed;" vertex="1" parent="1">
          <mxGeometry x="410" y="50" width="40" height="40" as="geometry" />
        </mxCell>
        <mxCell id="xO7pSeY5zcBQsekjDBeP-5" value="&lt;u&gt;강의&lt;br&gt;번호&lt;/u&gt;" style="ellipse;whiteSpace=wrap;html=1;aspect=fixed;" vertex="1" parent="1">
          <mxGeometry x="470" y="45" width="50" height="50" as="geometry" />
        </mxCell>
        <mxCell id="xO7pSeY5zcBQsekjDBeP-6" value="" style="endArrow=none;html=1;entryX=0.5;entryY=1;entryDx=0;entryDy=0;exitX=0.5;exitY=0;exitDx=0;exitDy=0;" edge="1" parent="1" source="xO7pSeY5zcBQsekjDBeP-2" target="xO7pSeY5zcBQsekjDBeP-3">
          <mxGeometry x="40" y="50" width="50" height="50" as="geometry">
            <mxPoint x="190" y="155" as="sourcePoint" />
            <mxPoint x="125" y="100" as="targetPoint" />
          </mxGeometry>
        </mxCell>
        <mxCell id="xO7pSeY5zcBQsekjDBeP-7" value="" style="endArrow=none;html=1;entryX=0.5;entryY=1;entryDx=0;entryDy=0;exitX=0.5;exitY=0;exitDx=0;exitDy=0;" edge="1" parent="1" source="xO7pSeY5zcBQsekjDBeP-2" target="xO7pSeY5zcBQsekjDBeP-5">
          <mxGeometry x="50" y="60" width="50" height="50" as="geometry">
            <mxPoint x="475" y="160" as="sourcePoint" />
            <mxPoint x="440" y="100" as="targetPoint" />
          </mxGeometry>
        </mxCell>
      </root>
    </mxGraphModel>
  </diagram>
  <diagram id="TC-pNvalCnhwuDl44VHK" name="Page-2">
    <mxGraphModel dx="1038" dy="548" grid="1" gridSize="10" guides="1" tooltips="1" connect="1" arrows="1" fold="1" page="1" pageScale="1" pageWidth="827" pageHeight="1169" math="0" shadow="0">
      <root>
        <mxCell id="0LqRvdz7oqRcNKISxSSL-0" />
        <mxCell id="0LqRvdz7oqRcNKISxSSL-1" parent="0LqRvdz7oqRcNKISxSSL-0" />
      </root>
    </mxGraphModel>
  </diagram>
</mxfile>
